<svg width="20" height="24" viewBox="0 0 20 24" fill="none" xmlns="http://www.w3.org/2000/svg">
<path d="M16.4498 22.4935C15.1741 23.7301 13.7813 23.5349 12.4405 22.9491C11.0217 22.3503 9.71995 22.3243 8.22299 22.9491C6.34853 23.7562 5.35923 23.5219 4.23976 22.4935C-2.11257 15.9459 -1.17534 5.97484 6.03612 5.61036C7.79342 5.70148 9.01703 6.57362 10.0454 6.65172C11.5814 6.33931 13.0523 5.44114 14.6925 5.55829C16.658 5.7145 18.142 6.49552 19.1183 7.90136C15.057 10.3356 16.0202 15.6856 19.7431 17.1825C19.0011 19.1351 18.0379 21.0746 16.4368 22.5065L16.4498 22.4935ZM9.91521 5.53226C9.71995 2.62945 12.076 0.234307 14.7836 0C15.1611 3.3584 11.7376 5.85768 9.91521 5.53226Z" fill="white"/>
</svg>
