<svg width="80" height="70" viewBox="0 0 80 70" fill="none" xmlns="http://www.w3.org/2000/svg">
<path d="M17.3826 51.0811C15.308 51.0811 13.5326 50.3407 12.0565 48.86C10.5804 47.3793 9.84112 45.5971 9.8386 43.5135C9.83609 41.4299 10.5754 39.649 12.0565 38.1708C13.5377 36.6926 15.313 35.951 17.3826 35.9459C19.4521 35.9409 21.2288 36.6825 22.7124 38.1708C24.196 39.6591 24.9341 41.44 24.9266 43.5135C24.919 45.587 24.181 47.3692 22.7124 48.86C21.2438 50.3508 19.4672 51.0912 17.3826 51.0811ZM62.6464 51.0811C60.5718 51.0811 58.7965 50.3407 57.3204 48.86C55.8443 47.3793 55.105 45.5971 55.1025 43.5135C55.1 41.4299 55.8393 39.649 57.3204 38.1708C58.8015 36.6926 60.5769 35.951 62.6464 35.9459C64.716 35.9409 66.4926 36.6825 67.9763 38.1708C69.4599 39.6591 70.198 41.44 70.1904 43.5135C70.1829 45.587 69.4448 47.3692 67.9763 48.86C66.5077 50.3508 64.7311 51.0912 62.6464 51.0811ZM40.0145 47.2973C37.3741 47.2973 35.1424 46.3829 33.3192 44.554C31.4961 42.7252 30.5845 40.4865 30.5845 37.8378C30.5845 35.1892 31.4961 32.9504 33.3192 31.1216C35.1424 29.2928 37.3741 28.3784 40.0145 28.3784C42.6549 28.3784 44.8867 29.2928 46.7098 31.1216C48.5329 32.9504 49.4445 35.1892 49.4445 37.8378C49.4445 40.4865 48.5329 42.7252 46.7098 44.554C44.8867 46.3829 42.6549 47.2973 40.0145 47.2973ZM21.5318 70C21.9718 67.7928 22.7577 65.7899 23.8893 63.9913C25.0209 62.1928 26.4039 60.6011 28.0384 59.2162C29.673 57.8313 31.5124 56.7593 33.5569 56C35.6013 55.2407 37.7538 54.8623 40.0145 54.8649C42.2752 54.8674 44.429 55.2458 46.4759 56C48.5229 56.7542 50.3611 57.8263 51.9906 59.2162C53.6201 60.6061 55.0031 62.1991 56.1398 63.9951C57.2764 65.7912 58.0622 67.7928 58.4973 70H21.5318ZM7.10391 70C5.78372 70 4.65212 69.5586 3.70912 68.6757C2.76612 67.7928 2.29463 66.7838 2.29463 65.6486C2.29463 63.1892 3.78833 60.7764 6.77575 58.4103C9.76316 56.0441 13.2045 54.8623 17.0997 54.8649C18.1684 54.8649 19.2057 54.9595 20.2116 55.1486C21.2174 55.3378 22.1919 55.6216 23.1349 56C21.2489 57.8288 19.6772 59.9263 18.4199 62.2924C17.1625 64.6585 16.3139 67.2277 15.8738 70H7.10391ZM64.1552 70C63.7152 67.2252 62.8665 64.656 61.6091 62.2924C60.3518 59.9288 58.7802 57.8313 56.8942 56C57.8372 55.6216 58.7965 55.3378 59.7722 55.1486C60.7479 54.9595 61.7688 54.8649 62.835 54.8649C66.7328 54.8649 70.1904 56.0479 73.208 58.414C76.2256 60.7802 77.7344 63.1917 77.7344 65.6486C77.7344 66.8468 77.2629 67.8722 76.3199 68.7249C75.3769 69.5775 74.2139 70.0025 72.8308 70H64.1552ZM0.785831 32.9189C0.157166 32.036 -0.0942997 31.0901 0.0314332 30.0811C0.157166 29.0721 0.660098 28.2523 1.54023 27.6216L35.3938 1.60811C36.7769 0.536036 38.3171 0 40.0145 0C41.7119 0 43.2521 0.536036 44.6352 1.60811L55.1025 9.64865V7.56757C55.1025 5.99099 55.6532 4.65153 56.7546 3.54919C57.856 2.44685 59.1913 1.89441 60.7604 1.89189C62.3296 1.88937 63.6661 2.4418 64.7701 3.54919C65.874 4.65658 66.4235 5.99604 66.4184 7.56757V18.3513L78.4888 27.6216C79.3061 28.2523 79.7939 29.0721 79.9523 30.0811C80.1107 31.0901 79.8744 32.036 79.2432 32.9189C78.612 33.8018 77.7947 34.3063 76.7914 34.4324C75.788 34.5586 74.8451 34.3063 73.9624 33.6757L40.0145 7.66216L6.06661 33.6757C5.18648 34.3063 4.24349 34.5586 3.23762 34.4324C2.23176 34.3063 1.4145 33.8018 0.785831 32.9189Z" fill="#9D87D2"/>
</svg>
