<svg width="21" height="23" viewBox="0 0 21 23" fill="none" xmlns="http://www.w3.org/2000/svg">
<path d="M0.337943 1.08947L10.5346 11.089L0.413777 21.1806C0.248196 20.965 0.119662 20.7233 0.0334432 20.4655C-0.0111477 20.1736 -0.0111477 19.8766 0.0334432 19.5846V2.41131C0.00310986 1.95047 0.109277 1.48964 0.336777 1.08947M14.9271 6.72797L11.5986 10.025L1.52328 0.116473C1.84994 0.00330674 2.19994 -0.0281931 2.54178 0.0254736C3.07844 0.172474 3.59061 0.398807 4.06078 0.693973L13.1794 5.73981C13.7721 6.05831 14.3496 6.39314 14.9271 6.72797ZM11.5998 12.1681L14.9119 15.4208L12.5109 16.7578L5.18544 20.8295C4.57878 21.1643 3.96978 21.484 3.37711 21.8491C3.12351 22.007 2.83914 22.109 2.54299 22.1482C2.24685 22.1875 1.94574 22.163 1.65978 22.0766L11.5998 12.1681ZM20.1864 11.089C20.195 11.4969 20.0919 11.8995 19.8883 12.2531C19.6848 12.6068 19.3885 12.8981 19.0314 13.0956L16.2944 14.6146L12.6929 11.089L16.3096 7.50264C17.2371 8.01947 18.1494 8.53631 19.0606 9.02281C19.424 9.22591 19.7225 9.52774 19.9215 9.89338C20.1205 10.259 20.2131 10.6735 20.1864 11.089Z" fill="white"/>
</svg>
