<svg width="238" height="25" viewBox="0 0 238 25" fill="none" xmlns="http://www.w3.org/2000/svg">
<path d="M8.77198 24.48C7.45731 24.48 6.22198 24.3893 5.06598 24.208C3.93264 24.0267 2.91264 23.8113 2.00598 23.562L-2.2389e-05 22.984L0.611978 20.23L2.92398 20.638C3.78531 20.8193 4.74864 20.9667 5.81398 21.08C6.90198 21.1933 7.87664 21.25 8.73798 21.25C10.5286 21.25 11.8773 20.944 12.784 20.332C13.7133 19.6973 14.178 18.7907 14.178 17.612C14.178 17 14.0306 16.4787 13.736 16.048C13.4413 15.6173 12.8746 15.198 12.036 14.79C11.1973 14.382 9.96198 13.94 8.32998 13.464C6.40331 12.8973 4.87331 12.342 3.73998 11.798C2.60664 11.2313 1.79064 10.5627 1.29198 9.79201C0.815978 8.99868 0.577978 7.97868 0.577978 6.73201C0.577978 5.14535 0.974644 3.86468 1.76798 2.89001C2.58398 1.89268 3.68331 1.16735 5.06598 0.714014C6.44864 0.238014 7.97864 1.33514e-05 9.65598 1.33514e-05C10.676 1.33514e-05 11.73 0.079347 12.818 0.238014C13.906 0.39668 14.9826 0.63468 16.048 0.952013L17.374 1.29201L16.83 4.01201L15.062 3.74001C14.2233 3.60401 13.3506 3.47935 12.444 3.36601C11.5373 3.25268 10.6533 3.19601 9.79198 3.19601C8.00131 3.19601 6.62998 3.49068 5.67798 4.08001C4.72598 4.66935 4.24998 5.54201 4.24998 6.69801C4.24998 7.28735 4.39731 7.77468 4.69198 8.16001C5.00931 8.54535 5.59864 8.89668 6.45998 9.21401C7.34398 9.53135 8.62464 9.93935 10.302 10.438C12.1833 10.9367 13.6793 11.492 14.79 12.104C15.9233 12.716 16.728 13.43 17.204 14.246C17.7026 15.062 17.952 16.0707 17.952 17.272C17.952 18.9267 17.544 20.2867 16.728 21.352C15.912 22.4173 14.8126 23.2107 13.43 23.732C12.0473 24.2307 10.4946 24.48 8.77198 24.48ZM28.7611 24.14V15.538L19.1731 0.340013H23.6611L30.5631 12.002H30.6991L37.5671 0.340013H41.9191L32.3651 15.504V24.14H28.7611ZM45.7874 24.14V0.340013H48.9494L63.1954 17.34H63.2634V0.340013H66.8674V24.14H64.0454L49.4254 6.59601H49.3574V24.14H45.7874ZM83.6923 24.378C81.4256 24.378 79.3856 23.9247 77.5723 23.018C75.7816 22.0887 74.3536 20.7173 73.2883 18.904C72.2456 17.0907 71.7243 14.858 71.7243 12.206C71.7243 10.2567 72.0416 8.53401 72.6763 7.03801C73.311 5.51935 74.1836 4.23868 75.2943 3.19601C76.405 2.13068 77.697 1.33735 79.1703 0.816013C80.6663 0.272013 82.253 1.33514e-05 83.9303 1.33514e-05C85.1543 1.33514e-05 86.333 0.12468 87.4663 0.374013C88.5996 0.623347 89.665 0.940681 90.6623 1.32601L91.4443 1.63201L90.7303 4.42001L89.7443 4.18201C88.7016 3.95535 87.727 3.76268 86.8203 3.60401C85.9363 3.42268 85.0296 3.33201 84.1003 3.33201C82.4456 3.33201 80.961 3.67201 79.6463 4.35201C78.3316 5.00935 77.3003 5.99535 76.5523 7.31001C75.8043 8.60201 75.4303 10.2227 75.4303 12.172C75.4303 14.144 75.7816 15.7873 76.4843 17.102C77.187 18.4167 78.173 19.4027 79.4423 20.06C80.7343 20.7173 82.219 21.046 83.8963 21.046C84.803 21.046 85.7436 20.9553 86.7183 20.774C87.693 20.5927 88.713 20.3547 89.7783 20.06L91.3423 19.584L92.0903 22.304L90.9003 22.814C89.7216 23.3127 88.5203 23.698 87.2963 23.97C86.0723 24.242 84.871 24.378 83.6923 24.378ZM96.2561 24.14V0.340013H106.626C108.349 0.340013 109.833 0.623347 111.08 1.19001C112.327 1.73401 113.29 2.52735 113.97 3.57001C114.673 4.61268 115.024 5.89335 115.024 7.41201C115.024 8.61335 114.809 9.67868 114.378 10.608C113.947 11.5373 113.324 12.3193 112.508 12.954C111.715 13.566 110.74 14.042 109.584 14.382C108.428 14.6993 107.113 14.858 105.64 14.858H99.8601V24.14H96.2561ZM112.168 24.14L106.048 14.28L109.482 13.532L116.214 24.14H112.168ZM99.8601 11.696H106.388C107.952 11.696 109.165 11.3333 110.026 10.608C110.91 9.86001 111.352 8.79468 111.352 7.41201C111.352 6.09735 110.91 5.12268 110.026 4.48801C109.165 3.85335 107.918 3.53601 106.286 3.53601H99.8601V11.696ZM130.741 24.48C128.338 24.48 126.242 23.97 124.451 22.95C122.66 21.9073 121.266 20.468 120.269 18.632C119.272 16.7733 118.773 14.6313 118.773 12.206C118.773 9.80335 119.272 7.68401 120.269 5.84801C121.289 4.01201 122.706 2.58401 124.519 1.56401C126.332 0.521347 128.406 1.33514e-05 130.741 1.33514e-05C133.166 1.33514e-05 135.274 0.521347 137.065 1.56401C138.878 2.58401 140.284 4.02335 141.281 5.88201C142.278 7.71801 142.777 9.83735 142.777 12.24C142.777 14.6427 142.267 16.7733 141.247 18.632C140.227 20.468 138.81 21.9073 136.997 22.95C135.206 23.97 133.121 24.48 130.741 24.48ZM130.741 21.148C132.396 21.148 133.846 20.7967 135.093 20.094C136.34 19.3687 137.314 18.3373 138.017 17C138.72 15.6627 139.071 14.0647 139.071 12.206C139.071 10.37 138.72 8.79468 138.017 7.48001C137.337 6.14268 136.374 5.12268 135.127 4.42001C133.88 3.69468 132.418 3.33201 130.741 3.33201C129.132 3.33201 127.704 3.69468 126.457 4.42001C125.21 5.12268 124.236 6.14268 123.533 7.48001C122.83 8.79468 122.479 10.3813 122.479 12.24C122.479 14.076 122.819 15.6627 123.499 17C124.202 18.3373 125.176 19.3687 126.423 20.094C127.67 20.7967 129.109 21.148 130.741 21.148ZM147.655 24.14V0.340013H158.365C159.929 0.340013 161.243 0.612013 162.309 1.15601C163.374 1.67735 164.179 2.40268 164.723 3.33201C165.289 4.26135 165.573 5.32668 165.573 6.52801C165.573 7.63868 165.346 8.67001 164.893 9.62201C164.462 10.574 163.657 11.288 162.479 11.764V11.798C163.635 12.0927 164.598 12.716 165.369 13.668C166.139 14.62 166.525 15.776 166.525 17.136C166.525 18.564 166.219 19.7993 165.607 20.842C164.995 21.8847 164.111 22.7007 162.955 23.29C161.799 23.8567 160.393 24.14 158.739 24.14H147.655ZM151.259 20.944H158.569C159.997 20.944 161.062 20.6267 161.765 19.992C162.467 19.3573 162.819 18.3713 162.819 17.034C162.819 15.9007 162.456 15.0393 161.731 14.45C161.005 13.838 160.008 13.532 158.739 13.532H151.259V20.944ZM151.259 10.336H158.501C159.702 10.336 160.597 10.0413 161.187 9.45201C161.799 8.86268 162.105 8.01268 162.105 6.90201C162.105 5.83668 161.787 5.00935 161.153 4.42001C160.518 3.83068 159.521 3.53601 158.161 3.53601H151.259V10.336ZM167.778 24.14L177.196 0.340013H181.48L190.966 24.14H186.988L179.372 4.08001H179.27L171.518 24.14H167.778ZM172.98 18.87V15.674H185.628V18.87H172.98ZM194.305 24.14V0.340013H205.015C206.579 0.340013 207.894 0.612013 208.959 1.15601C210.024 1.67735 210.829 2.40268 211.373 3.33201C211.94 4.26135 212.223 5.32668 212.223 6.52801C212.223 7.63868 211.996 8.67001 211.543 9.62201C211.112 10.574 210.308 11.288 209.129 11.764V11.798C210.285 12.0927 211.248 12.716 212.019 13.668C212.79 14.62 213.175 15.776 213.175 17.136C213.175 18.564 212.869 19.7993 212.257 20.842C211.645 21.8847 210.761 22.7007 209.605 23.29C208.449 23.8567 207.044 24.14 205.389 24.14H194.305ZM197.909 20.944H205.219C206.647 20.944 207.712 20.6267 208.415 19.992C209.118 19.3573 209.469 18.3713 209.469 17.034C209.469 15.9007 209.106 15.0393 208.381 14.45C207.656 13.838 206.658 13.532 205.389 13.532H197.909V20.944ZM197.909 10.336H205.151C206.352 10.336 207.248 10.0413 207.837 9.45201C208.449 8.86268 208.755 8.01268 208.755 6.90201C208.755 5.83668 208.438 5.00935 207.803 4.42001C207.168 3.83068 206.171 3.53601 204.811 3.53601H197.909V10.336ZM224.361 24.14V15.538L214.773 0.340013H219.261L226.163 12.002H226.299L233.167 0.340013H237.519L227.965 15.504V24.14H224.361Z" fill="#30104B"/>
</svg>
